# Blender 3.3.0
# www.blender.org
mtllib bullet.mtl
o bullet
v -0.196018 -0.009939 1.335232
v -0.196101 -0.008837 0.987586
v -0.134561 -0.145996 0.987136
v -0.134478 -0.147098 1.334782
v 0.005941 -0.199467 0.986933
v 0.006023 -0.200569 1.334579
v 0.143100 -0.137927 0.987096
v 0.143183 -0.139029 1.334742
v 0.196571 0.002574 0.987528
v 0.196654 0.001472 1.335175
v 0.135031 0.139733 0.987978
v 0.135114 0.138630 1.335624
v -0.005471 0.193204 0.988181
v -0.005388 0.192101 1.335827
v -0.142630 0.131664 0.988018
v -0.142547 0.130561 1.335665
v -0.196184 -0.007735 0.639937
v -0.134644 -0.144893 0.639488
v 0.005858 -0.198364 0.639285
v 0.143017 -0.136824 0.639447
v 0.196488 0.003677 0.639880
v 0.134948 0.140835 0.640330
v -0.005553 0.194306 0.640533
v -0.142713 0.132766 0.640370
v -0.196267 -0.006632 0.292289
v -0.134726 -0.143791 0.291840
v 0.005775 -0.197262 0.291637
v 0.142934 -0.135722 0.291799
v 0.196406 0.004779 0.292232
v 0.134865 0.141938 0.292681
v -0.005636 0.195408 0.292884
v -0.142795 0.133868 0.292722
v -0.196349 -0.005530 -0.055359
v -0.134809 -0.142689 -0.055809
v 0.005692 -0.196159 -0.056012
v 0.142852 -0.134620 -0.055849
v 0.196323 0.005881 -0.055417
v 0.134783 0.143040 -0.054967
v -0.005719 0.196511 -0.054764
v -0.142878 0.134971 -0.054927
v -0.000450 0.000706 -0.095570
v -0.000040 0.000890 -0.095570
v 0.000380 0.000730 -0.095570
v 0.000564 0.000320 -0.095572
v 0.000404 -0.000100 -0.095573
v -0.000006 -0.000284 -0.095573
v -0.000426 -0.000124 -0.095573
v -0.000610 0.000286 -0.095571
v -0.016793 -0.007824 2.308631
v -0.011357 -0.019939 2.308591
v 0.001053 -0.024662 2.308573
v 0.013168 -0.019227 2.308588
v 0.017891 -0.006816 2.308626
v 0.012456 0.005299 2.308666
v 0.000045 0.010022 2.308683
v -0.012070 0.004586 2.308669
v -0.134465 -0.147273 1.390102
v -0.196005 -0.010115 1.390552
v -0.142534 0.130386 1.390984
v 0.006036 -0.200744 1.389899
v 0.143196 -0.139204 1.390061
v 0.196667 0.001297 1.390494
v 0.135127 0.138455 1.390944
v -0.005375 0.191926 1.391147
v -0.106839 -0.118351 1.494288
v -0.155777 -0.009277 1.494645
v 0.004893 -0.160872 1.494126
v -0.113256 0.102455 1.494989
v -0.004182 0.151393 1.495118
v 0.113967 -0.111934 1.494255
v 0.156489 -0.000202 1.494600
v 0.107551 0.108872 1.494957
v -0.106811 -0.118728 1.613427
v -0.155749 -0.009654 1.613785
v 0.004921 -0.161249 1.613266
v -0.113228 0.102077 1.614129
v 0.113996 -0.112311 1.613395
v -0.004153 0.151015 1.614258
v 0.107579 0.108494 1.614097
v 0.156517 -0.000580 1.613739
v -0.089307 -0.100176 1.613482
v -0.130254 -0.008914 1.613781
v 0.004180 -0.135754 1.613347
v -0.094676 0.084573 1.614069
v 0.095444 -0.094807 1.613455
v -0.003412 0.125520 1.614177
v 0.131022 -0.001321 1.613743
v 0.090075 0.089942 1.614042
v -0.089269 -0.100685 1.773821
v -0.130216 -0.009422 1.774120
v 0.004218 -0.136263 1.773686
v -0.094638 0.084065 1.774408
v 0.095482 -0.095316 1.773794
v -0.003374 0.125012 1.774516
v 0.131060 -0.001829 1.774082
v 0.090113 0.089434 1.774381
v -0.073508 -0.084686 1.979859
v -0.107282 -0.009410 1.980106
v 0.003602 -0.114032 1.979748
v -0.077937 0.067700 1.980343
v 0.078879 -0.080258 1.979837
v -0.002660 0.101474 1.980432
v 0.108225 -0.003147 1.980074
v 0.074450 0.072129 1.980321
v -0.183037 -0.005078 -0.075876
v -0.125672 -0.132934 -0.076295
v -0.133193 0.125894 -0.075472
v 0.005301 -0.182777 -0.076484
v 0.133157 -0.125412 -0.076332
v 0.183001 0.005559 -0.075929
v 0.125635 0.133415 -0.075510
v -0.005337 0.183259 -0.075321
v -0.183040 -0.005037 -0.088823
v -0.125675 -0.132893 -0.089242
v -0.133196 0.125935 -0.088419
v 0.005297 -0.182736 -0.089431
v -0.005340 0.183300 -0.088268
v 0.133154 -0.125371 -0.089280
v 0.182998 0.005600 -0.088876
v 0.125632 0.133456 -0.088457
v -0.205386 -0.005686 -0.088820
v -0.141016 -0.149152 -0.089290
v -0.149457 0.141276 -0.088367
v 0.005947 -0.205083 -0.089502
v -0.005989 0.205646 -0.088197
v 0.149414 -0.140712 -0.089332
v 0.140974 0.149716 -0.088409
v 0.205344 0.006250 -0.088879
v -0.205391 -0.005624 -0.108614
v -0.141021 -0.149090 -0.109084
v -0.149462 0.141338 -0.108161
v 0.005942 -0.205020 -0.109296
v -0.005994 0.205709 -0.107991
v 0.149409 -0.140649 -0.109126
v 0.140969 0.149779 -0.108203
v 0.205339 0.006313 -0.108673
v -0.105938 -0.002733 -0.108628
v -0.072741 -0.076723 -0.108871
v -0.077094 0.073059 -0.108395
v 0.003052 -0.105567 -0.108980
v -0.003104 0.106256 -0.108307
v 0.077042 -0.072370 -0.108892
v 0.072689 0.077412 -0.108416
v 0.105886 0.003422 -0.108659
v -0.105936 -0.002767 -0.098134
v -0.072738 -0.076756 -0.098377
v -0.077091 0.073026 -0.097901
v 0.003054 -0.105601 -0.098486
v -0.003101 0.106223 -0.097813
v 0.077044 -0.072403 -0.098399
v 0.072692 0.077379 -0.097923
v 0.105889 0.003389 -0.098165
v -0.096903 -0.002504 -0.098136
v -0.066537 -0.070184 -0.098358
v -0.070519 0.066825 -0.097922
v 0.002792 -0.096568 -0.098458
v -0.002839 0.097191 -0.097842
v 0.070472 -0.066202 -0.098378
v 0.066490 0.070806 -0.097942
v 0.096857 0.003127 -0.098164
v -0.096906 -0.002471 -0.108629
v -0.066540 -0.070150 -0.108851
v -0.070521 0.066858 -0.108416
v 0.002790 -0.096535 -0.108951
v -0.002841 0.097224 -0.108336
v 0.070469 -0.066169 -0.108871
v 0.066488 0.070839 -0.108436
v 0.096854 0.003160 -0.108658
v -0.039003 -0.000788 -0.108638
v -0.026786 -0.028017 -0.108727
v -0.028388 0.027104 -0.108552
v 0.001107 -0.038633 -0.108767
v -0.001159 0.039322 -0.108520
v 0.028336 -0.026415 -0.108735
v 0.026734 0.028706 -0.108560
v 0.038951 0.001477 -0.108649
vn -0.9996 -0.0290 0.0001
vn -0.6863 -0.7273 -0.0021
vn 0.0290 -0.9996 -0.0032
vn 0.7273 -0.6863 -0.0023
vn 0.9996 0.0290 -0.0001
vn 0.6863 0.7273 0.0021
vn -0.0290 0.9996 0.0032
vn -0.7273 0.6863 0.0023
vn -0.9576 -0.0269 -0.2870
vn -0.6574 -0.6958 -0.2892
vn 0.0278 -0.9566 -0.2902
vn 0.6966 -0.6565 -0.2894
vn 0.9574 0.0287 -0.2873
vn 0.6573 0.6976 -0.2851
vn -0.0279 0.9584 -0.2841
vn -0.6968 0.6583 -0.2849
vn 0.0716 -0.1571 -0.9850
vn 0.0061 -0.2136 -0.9769
vn -0.0627 -0.1610 -0.9850
vn -0.0002 0.0032 -1.0000
vn -0.0721 0.1633 -0.9839
vn -0.0065 0.2197 -0.9755
vn 0.1485 0.1607 -0.9758
vn 0.0002 -0.0032 1.0000
vn -0.6745 -0.7155 0.1821
vn -0.9824 -0.0291 0.1843
vn -0.7149 0.6739 0.1865
vn 0.0286 -0.9831 0.1811
vn 0.7149 -0.6751 0.1819
vn 0.9825 0.0280 0.1841
vn 0.6746 0.7143 0.1863
vn -0.0285 0.9819 0.1873
vn 0.9825 0.0280 0.1840
vn -0.6852 -0.7264 0.0532
vn -0.9980 -0.0292 0.0556
vn 0.0290 -0.9982 0.0522
vn -0.7262 0.6850 0.0576
vn 0.7262 -0.6854 0.0530
vn -0.0290 0.9979 0.0586
vn 0.9981 0.0288 0.0553
vn 0.6852 0.7261 0.0574
vn -0.6739 -0.7149 0.1866
vn -0.9816 -0.0291 0.1888
vn 0.0286 -0.9822 0.1856
vn -0.7142 0.6733 0.1910
vn 0.7143 -0.6745 0.1864
vn -0.0285 0.9810 0.1918
vn 0.9817 0.0279 0.1885
vn 0.6740 0.7137 0.1908
vn -0.6616 -0.7021 0.2634
vn -0.9637 -0.0288 0.2656
vn 0.0281 -0.9646 0.2624
vn -0.7012 0.6608 0.2677
vn 0.7013 -0.6625 0.2632
vn -0.0279 0.9629 0.2685
vn 0.9638 0.0272 0.2653
vn 0.6617 0.7004 0.2675
vn -0.9575 -0.0269 -0.2871
vn 0.6966 -0.6564 -0.2894
vn -0.0279 0.9584 -0.2842
vn -0.9996 -0.0291 0.0001
vn 0.1113 0.1214 -0.9863
vn 0.0476 -0.1035 -0.9935
vn -0.0050 0.1656 -0.9862
vn 0.0045 -0.1594 -0.9872
vn -0.0481 0.1098 -0.9928
vn -0.0418 -0.1061 -0.9935
vn 0.3152 0.1445 -0.9380
vn 0.3229 -0.1200 -0.9388
vn -0.3233 0.1259 -0.9379
vn -0.3156 -0.1385 -0.9387
s 1
usemtl Messing
f 1//1 2//1 3//2 4//2
f 4//2 3//2 5//3 6//3
f 6//3 5//3 7//4 8//4
f 8//4 7//4 9//5 10//5
f 10//5 9//5 11//6 12//6
f 12//6 11//6 13//7 14//7
f 14//7 13//7 15//8 16//8
f 16//8 15//8 2//1 1//1
f 2//1 17//1 18//2 3//2
f 3//2 18//2 19//3 5//3
f 5//3 19//3 20//4 7//4
f 7//4 20//4 21//5 9//5
f 9//5 21//5 22//6 11//6
f 11//6 22//6 23//7 13//7
f 13//7 23//7 24//8 15//8
f 15//8 24//8 17//1 2//1
f 17//1 25//1 26//2 18//2
f 18//2 26//2 27//3 19//3
f 19//3 27//3 28//4 20//4
f 20//4 28//4 29//5 21//5
f 21//5 29//5 30//6 22//6
f 22//6 30//6 31//7 23//7
f 23//7 31//7 32//8 24//8
f 24//8 32//8 25//1 17//1
f 25//1 33//9 34//10 26//2
f 26//2 34//10 35//11 27//3
f 27//3 35//11 36//12 28//4
f 28//4 36//12 37//13 29//5
f 29//5 37//13 38//14 30//6
f 30//6 38//14 39//15 31//7
f 31//7 39//15 40//16 32//8
f 32//8 40//16 33//9 25//1
f 41//17 42//18 43//19 44//20 45//21 46//22 47//23 48//20
f 1//1 4//2 57//25 58//26
f 16//8 1//1 58//26 59//27
f 4//2 6//3 60//28 57//25
f 6//3 8//4 61//29 60//28
f 8//4 10//5 62//30 61//29
f 10//5 12//6 63//31 62//30
f 12//6 14//7 64//32 63//31
f 14//7 16//8 59//27 64//32
f 58//26 57//25 65//25 66//26
f 57//25 60//28 67//28 65//25
f 59//27 58//26 66//26 68//27
f 64//32 59//27 68//27 69//32
f 60//28 61//29 70//29 67//28
f 61//29 62//30 71//33 70//29
f 62//30 63//31 72//31 71//33
f 63//31 64//32 69//32 72//31
f 66//26 65//25 73//2 74//1
f 65//25 67//28 75//3 73//2
f 68//27 66//26 74//1 76//8
f 67//28 70//29 77//4 75//3
f 69//32 68//27 76//8 78//7
f 72//31 69//32 78//7 79//6
f 70//29 71//33 80//5 77//4
f 71//33 72//31 79//6 80//5
f 74//24 73//24 81//24 82//24
f 73//24 75//24 83//24 81//24
f 76//24 74//24 82//24 84//24
f 75//24 77//24 85//24 83//24
f 78//24 76//24 84//24 86//24
f 77//24 80//24 87//24 85//24
f 79//24 78//24 86//24 88//24
f 80//24 79//24 88//24 87//24
f 34//10 33//9 105//58 106//10
f 33//9 40//16 107//16 105//58
f 35//11 34//10 106//10 108//11
f 36//12 35//11 108//11 109//59
f 37//13 36//12 109//59 110//13
f 38//14 37//13 110//13 111//14
f 39//15 38//14 111//14 112//60
f 40//16 39//15 112//60 107//16
f 106//10 105//58 113//1 114//2
f 105//58 107//16 115//8 113//1
f 108//11 106//10 114//2 116//3
f 107//16 112//60 117//7 115//8
f 109//59 108//11 116//3 118//4
f 110//13 109//59 118//4 119//5
f 111//14 110//13 119//5 120//6
f 112//60 111//14 120//6 117//7
f 114//24 113//24 121//24 122//24
f 113//24 115//24 123//24 121//24
f 116//24 114//24 122//24 124//24
f 115//24 117//24 125//24 123//24
f 118//24 116//24 124//24 126//24
f 117//24 120//24 127//24 125//24
f 119//24 118//24 126//24 128//24
f 120//24 119//24 128//24 127//24
f 122//2 121//61 129//61 130//2
f 121//61 123//8 131//8 129//61
f 124//3 122//2 130//2 132//3
f 123//8 125//7 133//7 131//8
f 126//4 124//3 132//3 134//4
f 125//7 127//6 135//6 133//7
f 128//5 126//4 134//4 136//5
f 127//6 128//5 136//5 135//6
f 130//20 129//20 137//20 138//20
f 129//20 131//20 139//20 137//20
f 132//20 130//20 138//20 140//20
f 131//20 133//20 141//20 139//20
f 134//20 132//20 140//20 142//20
f 133//20 135//20 143//20 141//20
f 136//20 134//20 142//20 144//20
f 135//20 136//20 144//20 143//20
f 138//6 137//5 145//5 146//6
f 137//5 139//4 147//4 145//5
f 140//7 138//6 146//6 148//7
f 139//4 141//3 149//3 147//4
f 142//8 140//7 148//7 150//8
f 141//3 143//2 151//2 149//3
f 144//1 142//8 150//8 152//1
f 143//2 144//1 152//1 151//2
f 146//20 145//20 153//20 154//20
f 145//20 147//20 155//20 153//20
f 148//20 146//20 154//20 156//20
f 147//20 149//20 157//20 155//20
f 150//20 148//20 156//20 158//20
f 149//20 151//20 159//20 157//20
f 152//20 150//20 158//20 160//20
f 151//20 152//20 160//20 159//20
f 154//2 153//1 161//1 162//2
f 153//1 155//8 163//8 161//1
f 156//3 154//2 162//2 164//3
f 155//8 157//7 165//7 163//8
f 158//4 156//3 164//3 166//4
f 157//7 159//6 167//6 165//7
f 160//5 158//4 166//4 168//5
f 159//6 160//5 168//5 167//6
f 162//20 161//20 169//20 170//62
f 161//20 163//20 171//63 169//20
f 164//20 162//20 170//62 172//64
f 163//20 165//20 173//65 171//63
f 166//20 164//20 172//64 174//66
f 165//20 167//20 175//67 173//65
f 168//20 166//20 174//66 176//20
f 167//20 168//20 176//20 175//67
f 170//62 169//68 48//68 47//23
f 169//69 171//69 41//69 48//69
f 172//64 170//62 47//23 46//22
f 171//63 173//65 42//18 41//17
f 174//66 172//64 46//22 45//21
f 173//65 175//67 43//19 42//18
f 176//70 174//70 45//70 44//70
f 175//71 176//71 44//71 43//71
usemtl material23
f 49//24 50//24 51//24 52//24 53//24 54//24 55//24 56//24
f 82//1 81//2 89//34 90//35
f 81//2 83//3 91//36 89//34
f 84//8 82//1 90//35 92//37
f 83//3 85//4 93//38 91//36
f 86//7 84//8 92//37 94//39
f 85//4 87//5 95//40 93//38
f 88//6 86//7 94//39 96//41
f 87//5 88//6 96//41 95//40
f 90//35 89//34 97//42 98//43
f 89//34 91//36 99//44 97//42
f 92//37 90//35 98//43 100//45
f 91//36 93//38 101//46 99//44
f 94//39 92//37 100//45 102//47
f 93//38 95//40 103//48 101//46
f 96//41 94//39 102//47 104//49
f 95//40 96//41 104//49 103//48
f 98//43 97//42 50//50 49//51
f 97//42 99//44 51//52 50//50
f 100//45 98//43 49//51 56//53
f 99//44 101//46 52//54 51//52
f 102//47 100//45 56//53 55//55
f 101//46 103//48 53//56 52//54
f 104//49 102//47 55//55 54//57
f 103//48 104//49 54//57 53//56
